<svg width="100%" height="100%" viewBox="0 0 48 48" fill="none" xmlns="http://www.w3.org/2000/svg">
<path d="M24 6H9C7.34314 6 6 7.38045 6 9.08333V39.9167C6 41.6195 7.34314 43 9 43H39C40.6568 43 42 41.6195 42 39.9167V24.5" stroke="currentColor" stroke-width="4" />
<path d="M6 35L16.6931 25.198C17.4389 24.5143 18.5779 24.4953 19.3461 25.1538L32 36" stroke="currentColor" stroke-width="4" stroke-linecap="round" stroke-linejoin="round" />
<path d="M28 31L32.7735 26.2265C33.4772 25.5228 34.5914 25.4436 35.3877 26.0408L42 31" stroke="currentColor" stroke-width="4" stroke-linecap="round" stroke-linejoin="round" />
<path d="M33.3 6C31.4775 6 30 7.43473 30 9.20455C30 12.4091 33.9 15.3223 36 16C38.1 15.3223 42 12.4091 42 9.20455C42 7.43473 40.5225 6 38.7 6C37.5839 6 36.5972 6.53804 36 7.3616C35.4028 6.53804 34.4161 6 33.3 6Z" fill="none" stroke="currentColor" stroke-width="4" stroke-linecap="round" stroke-inejoin="round" />
</svg>